# Planet.of.the.Apes.2001.1080p.BluRay.REMUX.MPEG-2.DTS-HD.MA.5.1-FGT

```text
General
Unique ID                                : 194371904719401740174917401740921704281
Complete name                            : Planet.of.the.Apes.2001.1080p.BluRay.REMUX.MPEG-2.DTS-HD.MA.5.1-FGT.mkv
Format                                   : Matroska
Format version                           : Version 4
File size                                : 21.8 GiB
Duration                                 : 1 h 59 min 56 s
Overall bit rate mode                    : Variable
Overall bit rate                         : 26.1 Mb/s
Frame rate                               : 23.976 fps
Movie name                               : Planet of the Apes (2001) Remux
Encoded date                             : UTC 2026-06-12 18:00:00
Writing application                      : mkvmerge v85.0 ('The Great Escape') 64-bit
Writing library                          : libebml v1.4.5 + libmatroska v1.7.1

Video
ID                                       : 1
Format                                   : MPEG Video
Format version                           : Version 2
Format profile                           : Main@High
Format settings, BVOP                    : Yes
Format settings, Matrix                  : Custom
Format settings, GOP                     : M=3, N=15
Codec ID                                 : V_MPEG2
Codec ID/Info                            : MPEG 1 or 2 Video
Duration                                 : 1 h 59 min 56 s
Bit rate mode                            : Variable
Bit rate                                 : 20.2 Mb/s
Maximum bit rate                         : 24.0 Mb/s
Width                                    : 1 920 pixels
Height                                   : 1 080 pixels
Display aspect ratio                     : 16:9
Frame rate mode                          : Constant
Frame rate                               : 23.976 (24000/1001) fps
Color space                              : YUV
Chroma subsampling                       : 4:2:0
Bit depth                                : 8 bits
Scan type                                : Progressive
Compression mode                         : Lossy
Bits/(Pixel*Frame)                       : 0.406
Stream size                              : 16.9 GiB (77%)
Language                                 : English
Default                                  : Yes
Forced                                   : No
Color range                              : Limited
Color primaries                          : BT.709
Transfer characteristics                 : BT.709
Matrix coefficients                      : BT.709

Audio #1
ID                                       : 2
Format                                   : DTS ES XLL
Format/Info                              : Digital Theater Systems
Commercial name                          : DTS-HD Master Audio
Codec ID                                 : A_DTS
Duration                                 : 1 h 59 min 56 s
Bit rate mode                            : Variable
Bit rate                                 : 3 841 kb/s
Channel(s)                               : 6 channels
Channel layout                           : C L R Ls Rs LFE
Sampling rate                            : 48.0 kHz
Frame rate                               : 93.750 fps (512 SPF)
Bit depth                                : 24 bits
Compression mode                         : Lossless
Stream size                              : 3.21 GiB (15%)
Title                                    : DTS-HD MA 5.1 (English)
Language                                 : English
Default                                  : Yes
Forced                                   : No

Audio #2
ID                                       : 3
Format                                   : AC-3
Format/Info                              : Audio Coding 3
Commercial name                          : Dolby Digital
Codec ID                                 : A_AC3
Duration                                 : 1 h 59 min 56 s
Bit rate mode                            : Constant
Bit rate                                 : 448 kb/s
Channel(s)                               : 6 channels
Channel layout                           : L R C LFE Ls Rs
Sampling rate                            : 48.0 kHz
Frame rate                               : 31.250 fps (1536 SPF)
Bit depth                                : 16 bits
Compression mode                         : Lossy
Stream size                              : 384 MiB (2%)
Title                                    : Dolby Digital 5.1 (French)
Language                                 : French
Default                                  : No
Forced                                   : No

Audio #3
ID                                       : 4
Format                                   : AC-3
Format/Info                              : Audio Coding 3
Commercial name                          : Dolby Digital
Codec ID                                 : A_AC3
Duration                                 : 1 h 59 min 56 s
Bit rate mode                            : Constant
Bit rate                                 : 448 kb/s
Channel(s)                               : 6 channels
Channel layout                           : L R C LFE Ls Rs
Sampling rate                            : 48.0 kHz
Frame rate                               : 31.250 fps (1536 SPF)
Bit depth                                : 16 bits
Compression mode                         : Lossy
Stream size                              : 384 MiB (2%)
Title                                    : Dolby Digital 5.1 (Spanish)
Language                                 : Spanish
Default                                  : No
Forced                                   : No

Text #1
ID                                       : 5
Format                                   : PGS
Muxing mode                              : zlib
Codec ID                                 : S_HDMV/PGS
Codec ID/Info                            : Picture based subtitle format used on BDs/HD-DVDs
Duration                                 : 1 h 58 min 12 s
Bit rate                                 : 32.4 kb/s
Frame rate                               : 0.320 fps
Element count                            : 2272
Stream size                              : 27.5 MiB (0%)
Title                                    : English SDH (PGS)
Language                                 : English
Default                                  : No
Forced                                   : No

Text #2
ID                                       : 6
Format                                   : PGS
Muxing mode                              : zlib
Codec ID                                 : S_HDMV/PGS
Codec ID/Info                            : Picture based subtitle format used on BDs/HD-DVDs
Duration                                 : 1 h 55 min 04 s
Bit rate                                 : 28.1 kb/s
Frame rate                               : 0.291 fps
Element count                            : 2012
Stream size                              : 23.2 MiB (0%)
Title "                                  : Spanish (PGS)
Language                                 : Spanish
Default                                  : No
Forced                                   : No

Text #3
ID                                       : 7
Format                                   : PGS
Muxing mode                              : zlib
Codec ID                                 : S_HDMV/PGS
Codec ID/Info                            : Picture based subtitle format used on BDs/HD-DVDs
Duration                                 : 1 h 54 min 19 s
Bit rate                                 : 24.2 kb/s
Frame rate                               : 0.252 fps
Element count                            : 1721
Stream size                              : 19.8 MiB (0%)
Title                                    : French (PGS)
Language                                 : French
Default                                  : No
Forced                                   : No

Menu
00:00:00.000                             : en:Chapter 1
00:05:14.313                             : en:Chapter 2
00:10:45.644                             : en:Chapter 3
00:16:11.970                             : en:Chapter 4
00:21:54.312                             : en:Chapter 5
00:27:08.627                             : en:Chapter 6
00:32:41.960                             : en:Chapter 7
00:37:12.229                             : en:Chapter 8
00:43:05.582                             : en:Chapter 9
00:48:58.935                             : en:Chapter 10
00:54:32.268                             : en:Chapter 11
01:00:05.601                             : en:Chapter 12
01:05:38.934                             : en:Chapter 13
01:11:12.267                             : en:Chapter 14
01:16:45.600                             : en:Chapter 15
01:22:18.933                             : en:Chapter 16
01:27:52.266                             : en:Chapter 17
01:33:25.599                             : en:Chapter 18
01:38:58.932                             : en:Chapter 19
01:44:32.265                             : en:Chapter 20
01:50:05.598                             : en:Chapter 21
01:55:38.931                             : en:Chapter 22
```
